# xmcd
#
# Track frame offsets: 
#        150
#        20362
#        35412
#        48864
#        63781
#        84308
#        99239
#        115816
#        138671
#        154156
#        162531
#        182661
#        197034
#        210432
#        225433
#        246008
#        260666
#
# Disc length: 3682 seconds
#
# Revision: 3
# Processed by: cddbd v1.5.1PL0 Copyright (c) Steve Scherf et al.
# Submitted via: ExactAudioCopy v0.95a5
#
DISCID=d80e6011
DTITLE=Crystal Gayle - In My Arms
DYEAR=2000
DGENRE=Country
TTITLE0=In My Arms
TTITLE1=What Will I Be Tomorrow?
TTITLE2=Little Puppy
TTITLE3=Crystal Moon
TTITLE4=The Light In Your Heart
TTITLE5=Carousel
TTITLE6=Last Ray Of Sunshine
TTITLE7=Counting Sheep Around The World
TTITLE8=Panda Prayer
TTITLE9=Peaceful Night (Instrumental)
TTITLE10=Fly To The Highest Mountain (Instrumental)
TTITLE11=Tomorrow (Instrumental)
TTITLE12=Princess (Instrumental)
TTITLE13=By The Light (Instrumental)
TTITLE14=Light Inside (Instrumental)
TTITLE15=Round And Round (Instrumental)
TTITLE16=Star Dance (Instrumental)
EXTD=
EXTT0=
EXTT1=
EXTT2=
EXTT3=
EXTT4=
EXTT5=
EXTT6=
EXTT7=
EXTT8=
EXTT9=
EXTT10=
EXTT11=
EXTT12=
EXTT13=
EXTT14=
EXTT15=
EXTT16=
PLAYORDER=
